<?xml version="1.0" standalone="no"?>
<!DOCTYPE svg PUBLIC "-//W3C//DTD SVG 20010904//EN"
 "http://www.w3.org/TR/2001/REC-SVG-20010904/DTD/svg10.dtd">
<svg version="1.0" xmlns="http://www.w3.org/2000/svg"
 width="996.000000pt" height="308.000000pt" viewBox="0 0 996.000000 308.000000"
 preserveAspectRatio="xMidYMid meet">

<g transform="translate(0.000000,308.000000) scale(0.100000,-0.100000)"
fill="#000000" stroke="none">
<path d="M4350 2405 l0 -205 35 0 35 0 0 205 0 205 -35 0 -35 0 0 -205z"/>
<path d="M8880 2406 l0 -206 30 0 c21 0 30 5 30 17 0 15 2 15 19 -1 11 -10 38
-20 60 -23 36 -5 44 -2 74 28 27 27 36 46 42 85 7 55 -5 115 -30 151 -22 31
-78 40 -121 20 l-33 -16 -3 72 -3 72 -32 3 -33 3 0 -205z m164 2 c35 -49 11
-158 -34 -158 -56 0 -83 109 -38 157 27 29 52 29 72 1z"/>
<path d="M4502 2588 c-28 -28 -3 -72 39 -66 30 4 47 33 33 56 -14 21 -55 27
-72 10z"/>
<path d="M4902 2588 c-28 -28 -3 -72 39 -66 30 4 47 33 33 56 -14 21 -55 27
-72 10z"/>
<path d="M315 2570 c-11 -18 -125 -344 -125 -357 0 -8 14 -13 35 -13 33 0 36
3 47 45 l12 45 72 0 72 0 14 -42 c12 -35 20 -44 42 -46 58 -7 59 -2 5 150 -28
79 -58 162 -66 186 -14 41 -16 42 -58 42 -24 0 -47 -5 -50 -10z m70 -140 c10
-30 20 -61 23 -67 3 -9 -10 -13 -47 -13 -28 0 -51 3 -51 6 0 23 44 144 50 137
4 -4 16 -33 25 -63z"/>
<path d="M9217 2543 c-4 -3 -7 -19 -7 -35 0 -21 -5 -28 -20 -28 -16 0 -20 -7
-20 -30 0 -23 5 -30 19 -30 17 0 19 -10 23 -96 3 -86 5 -98 27 -115 44 -35
111 -23 111 21 0 23 -4 27 -20 23 -37 -10 -50 14 -50 93 l0 74 35 0 c32 0 35
2 35 30 0 28 -3 30 -35 30 -33 0 -35 2 -35 35 0 32 -3 35 -28 35 -16 0 -32 -3
-35 -7z"/>
<path d="M632 2475 c-59 -26 -90 -134 -58 -208 22 -53 51 -72 111 -72 61 0 85
16 85 56 0 29 0 29 -30 14 -66 -34 -100 -8 -100 77 0 40 5 59 18 71 23 21 52
22 78 2 10 -8 22 -15 27 -15 13 0 7 57 -8 70 -23 19 -87 22 -123 5z"/>
<path d="M883 2475 c-17 -7 -40 -28 -49 -47 -25 -46 -25 -145 -1 -182 33 -49
115 -70 186 -45 25 9 31 16 31 41 0 25 -3 29 -17 23 -10 -4 -37 -10 -61 -12
-47 -6 -82 15 -82 49 0 16 9 18 84 18 97 0 105 8 86 79 -21 81 -95 112 -177
76z m101 -67 c24 -34 20 -38 -39 -38 -48 0 -55 3 -55 20 0 41 69 54 94 18z"/>
<path d="M1170 2483 c-50 -18 -72 -78 -45 -119 9 -13 37 -35 63 -47 33 -16 47
-28 47 -42 0 -17 -7 -20 -40 -20 -22 0 -50 4 -62 8 -21 8 -23 5 -23 -23 0 -39
33 -54 104 -47 58 5 96 40 96 86 0 37 -17 58 -75 89 -60 32 -66 57 -15 56 19
0 44 -2 55 -5 30 -6 32 35 3 55 -22 16 -78 20 -108 9z"/>
<path d="M1410 2483 c-50 -18 -72 -78 -45 -119 9 -13 37 -35 63 -47 33 -16 47
-28 47 -42 0 -17 -7 -20 -40 -20 -22 0 -50 4 -62 8 -21 8 -23 5 -23 -23 0 -39
33 -54 104 -47 58 5 96 40 96 86 0 37 -17 58 -75 89 -60 32 -66 57 -15 56 19
0 44 -2 55 -5 30 -6 32 35 3 55 -22 16 -78 20 -108 9z"/>
<path d="M1663 2475 c-17 -7 -40 -28 -49 -47 -25 -46 -25 -145 -1 -182 33 -49
115 -70 186 -45 25 9 31 16 31 41 0 25 -3 29 -17 23 -10 -4 -37 -10 -61 -12
-47 -6 -82 15 -82 49 0 16 9 18 84 18 97 0 105 8 86 79 -21 81 -95 112 -177
76z m101 -67 c24 -34 20 -38 -39 -38 -48 0 -55 3 -55 20 0 41 69 54 94 18z"/>
<path d="M3651 2464 c-30 -25 -31 -25 -31 -5 0 17 -6 21 -30 21 l-30 0 0 -140
0 -140 35 0 35 0 0 99 c0 92 2 101 22 115 58 41 78 11 78 -118 l0 -96 35 0 35
0 0 93 c0 85 2 96 23 115 26 25 50 28 65 9 6 -7 13 -58 14 -113 l3 -99 33 -3
32 -3 0 110 c0 60 -5 121 -11 134 -23 50 -91 61 -136 23 l-28 -24 -28 24 c-37
31 -78 31 -116 -2z"/>
<path d="M4083 2479 c-28 -8 -33 -14 -33 -40 0 -28 3 -31 23 -25 82 25 127 16
127 -25 0 -15 -8 -19 -37 -20 -116 -1 -171 -82 -104 -150 36 -36 86 -39 125
-8 21 17 26 18 26 5 0 -11 9 -16 30 -16 l30 0 0 114 c0 106 -2 117 -23 142
-19 22 -33 28 -78 30 -30 2 -69 -1 -86 -7z m117 -184 c0 -44 -70 -61 -94 -22
-15 24 15 47 61 47 28 0 33 -3 33 -25z"/>
<path d="M4702 2475 c-59 -26 -90 -134 -58 -208 22 -53 51 -72 111 -72 61 0
85 16 85 56 0 29 0 29 -30 14 -66 -34 -100 -8 -100 77 0 40 5 59 18 71 23 21
52 22 78 2 10 -8 22 -15 27 -15 13 0 7 57 -8 70 -23 19 -87 22 -123 5z"/>
<path d="M5101 2473 c-59 -30 -86 -122 -58 -203 36 -103 202 -107 248 -6 66
144 -54 276 -190 209z m111 -60 c23 -21 25 -109 2 -141 -18 -26 -60 -29 -86
-5 -23 21 -25 109 -2 141 18 26 60 29 86 5z"/>
<path d="M5730 2483 c-50 -18 -72 -78 -45 -119 9 -13 37 -35 63 -47 33 -16 47
-28 47 -42 0 -17 -7 -20 -40 -20 -22 0 -50 4 -62 8 -21 8 -23 5 -23 -23 0 -39
33 -54 104 -47 58 5 96 40 96 86 0 37 -17 58 -75 89 -60 32 -66 57 -15 56 19
0 44 -2 55 -5 30 -6 32 35 3 55 -22 16 -78 20 -108 9z"/>
<path d="M6142 2475 c-59 -26 -90 -134 -58 -208 22 -53 51 -72 111 -72 61 0
85 16 85 56 0 29 0 29 -30 14 -66 -34 -100 -8 -100 77 0 40 5 59 18 71 23 21
52 22 78 2 10 -8 22 -15 27 -15 13 0 7 57 -8 70 -23 19 -87 22 -123 5z"/>
<path d="M6391 2473 c-59 -30 -86 -122 -58 -203 36 -103 202 -107 248 -6 66
144 -54 276 -190 209z m111 -60 c23 -21 25 -109 2 -141 -18 -26 -60 -29 -86
-5 -23 21 -25 109 -2 141 18 26 60 29 86 5z"/>
<path d="M6751 2464 c-30 -25 -31 -25 -31 -5 0 17 -6 21 -30 21 l-30 0 0 -140
0 -140 35 0 35 0 0 99 c0 92 2 101 22 115 58 41 78 11 78 -118 l0 -96 35 0 35
0 0 93 c0 85 2 96 23 115 26 25 50 28 65 9 6 -7 13 -58 14 -113 l3 -99 33 -3
32 -3 0 110 c0 60 -5 121 -11 134 -23 50 -91 61 -136 23 l-28 -24 -28 24 c-37
31 -78 31 -116 -2z"/>
<path d="M7383 2471 c-26 -16 -32 -17 -37 -5 -3 8 -17 14 -31 14 l-25 0 0
-196 0 -195 33 3 c32 3 32 3 35 66 l3 62 29 -15 c46 -24 78 -19 115 18 25 25
34 45 40 83 7 57 -6 121 -33 154 -25 31 -88 37 -129 11z m71 -63 c33 -47 11
-158 -31 -158 -34 0 -63 41 -63 89 0 75 60 119 94 69z"/>
<path d="M7643 2479 c-28 -8 -33 -14 -33 -40 0 -28 3 -31 23 -25 82 25 127 16
127 -25 0 -15 -8 -19 -37 -20 -116 -1 -171 -82 -104 -150 36 -36 86 -39 125
-8 21 17 26 18 26 5 0 -11 9 -16 30 -16 l30 0 0 114 c0 106 -2 117 -23 142
-19 22 -33 28 -78 30 -30 2 -69 -1 -86 -7z m117 -184 c0 -44 -70 -61 -94 -22
-15 24 15 47 61 47 28 0 33 -3 33 -25z"/>
<path d="M7996 2467 c-23 -23 -25 -23 -29 -6 -3 13 -14 19 -31 19 l-26 0 0
-141 0 -140 33 3 32 3 5 93 c5 102 20 128 68 119 21 -4 23 -1 20 32 -4 46 -36
54 -72 18z"/>
<path d="M8153 2479 c-28 -8 -33 -14 -33 -40 0 -28 3 -31 23 -25 82 25 127 16
127 -25 0 -15 -8 -19 -37 -20 -116 -1 -171 -82 -104 -150 36 -36 86 -39 125
-8 21 17 26 18 26 5 0 -11 9 -16 30 -16 l30 0 0 114 c0 106 -2 117 -23 142
-19 22 -33 28 -78 30 -30 2 -69 -1 -86 -7z m117 -184 c0 -44 -70 -61 -94 -22
-15 24 15 47 61 47 28 0 33 -3 33 -25z"/>
<path d="M8611 2473 c-59 -30 -86 -122 -58 -203 36 -103 202 -107 248 -6 66
144 -54 276 -190 209z m111 -60 c23 -21 25 -109 2 -141 -18 -26 -60 -29 -86
-5 -23 21 -25 109 -2 141 18 26 60 29 86 5z"/>
<path d="M9463 2475 c-17 -7 -40 -28 -49 -47 -25 -46 -25 -145 -1 -182 33 -49
115 -70 186 -45 25 9 31 16 31 41 0 25 -3 29 -17 23 -10 -4 -37 -10 -61 -12
-47 -6 -82 15 -82 49 0 16 9 18 84 18 97 0 105 8 86 79 -21 81 -95 112 -177
76z m101 -67 c24 -34 20 -38 -39 -38 -48 0 -55 3 -55 20 0 41 69 54 94 18z"/>
<path d="M9796 2467 c-23 -23 -25 -23 -29 -6 -3 13 -14 19 -31 19 l-26 0 0
-141 0 -140 33 3 32 3 5 93 c5 102 20 128 68 119 21 -4 23 -1 20 32 -4 46 -36
54 -72 18z"/>
<path d="M2020 2472 c0 -4 17 -67 39 -138 l38 -129 44 0 44 0 22 75 c12 41 22
77 23 80 1 3 13 -31 28 -75 l27 -80 42 -3 42 -3 31 103 c17 57 35 116 41 132
14 43 12 46 -26 46 -32 0 -35 -3 -45 -42 -6 -24 -19 -70 -29 -103 l-17 -60
-28 103 -28 102 -34 0 c-36 0 -34 4 -65 -125 -6 -27 -15 -54 -19 -58 -4 -4
-18 34 -31 85 l-25 93 -37 3 c-20 2 -37 -1 -37 -6z"/>
<path d="M2470 2472 c0 -4 17 -67 39 -138 l38 -129 44 0 44 0 22 75 c12 41 22
77 23 80 1 3 13 -31 28 -75 l27 -80 42 -3 42 -3 31 103 c17 57 35 116 41 132
14 43 12 46 -26 46 -32 0 -35 -3 -45 -42 -6 -24 -19 -70 -29 -103 l-17 -60
-28 103 -28 102 -34 0 c-36 0 -34 4 -65 -125 -6 -27 -15 -54 -19 -58 -4 -4
-18 34 -31 85 l-25 93 -37 3 c-20 2 -37 -1 -37 -6z"/>
<path d="M2920 2472 c0 -4 17 -67 39 -138 l38 -129 44 0 44 0 22 75 c12 41 22
77 23 80 1 3 13 -31 28 -75 l27 -80 42 -3 42 -3 31 103 c17 57 35 116 41 132
14 43 12 46 -26 46 -32 0 -35 -3 -45 -42 -6 -24 -19 -70 -29 -103 l-17 -60
-28 103 -28 102 -34 0 c-36 0 -34 4 -65 -125 -6 -27 -15 -54 -19 -58 -4 -4
-18 34 -31 85 l-25 93 -37 3 c-20 2 -37 -1 -37 -6z"/>
<path d="M4500 2340 l0 -140 35 0 35 0 0 140 0 140 -35 0 -35 0 0 -140z"/>
<path d="M4900 2340 l0 -140 35 0 35 0 0 140 0 140 -35 0 -35 0 0 -140z"/>
<path d="M5370 2363 c1 -123 5 -139 47 -161 33 -18 67 -14 98 10 25 19 28 20
37 5 5 -10 20 -17 33 -17 l25 0 0 140 0 140 -35 0 -35 0 0 -93 c0 -85 -2 -96
-23 -115 -26 -25 -50 -28 -65 -9 -6 7 -13 58 -14 113 l-3 99 -32 3 -33 3 0
-118z"/>
<path d="M3404 2276 c-3 -8 -4 -27 -2 -43 3 -25 7 -28 38 -28 34 0 35 1 35 40
0 38 -2 40 -33 43 -21 2 -34 -2 -38 -12z"/>
<path d="M5934 2276 c-3 -8 -4 -27 -2 -43 3 -25 7 -28 38 -28 34 0 35 1 35 40
0 38 -2 40 -33 43 -21 2 -34 -2 -38 -12z"/>
<path d="M1157 1873 c-4 -3 -7 -37 -7 -75 l0 -69 -30 16 c-42 22 -74 19 -109
-11 -70 -59 -64 -221 10 -260 38 -19 68 -18 106 5 26 16 32 17 37 5 3 -8 17
-14 31 -14 l25 0 0 205 0 205 -28 0 c-16 0 -32 -3 -35 -7z m-30 -195 c32 -30
32 -102 1 -135 -45 -48 -88 -17 -88 65 0 85 38 116 87 70z"/>
<path d="M3327 1873 c-4 -3 -7 -37 -7 -75 l0 -69 -30 16 c-42 22 -74 19 -109
-11 -70 -59 -64 -221 10 -260 38 -19 68 -18 106 5 26 16 32 17 37 5 3 -8 17
-14 31 -14 l25 0 0 205 0 205 -28 0 c-16 0 -32 -3 -35 -7z m-30 -195 c32 -30
32 -102 1 -135 -45 -48 -88 -17 -88 65 0 85 38 116 87 70z"/>
<path d="M5877 1873 c-4 -3 -7 -37 -7 -75 l0 -69 -30 16 c-42 22 -74 19 -109
-11 -70 -59 -64 -221 10 -260 38 -19 68 -18 106 5 26 16 32 17 37 5 3 -8 17
-14 31 -14 l25 0 0 205 0 205 -28 0 c-16 0 -32 -3 -35 -7z m-30 -195 c32 -30
32 -102 1 -135 -45 -48 -88 -17 -88 65 0 85 38 116 87 70z"/>
<path d="M2172 1858 c-28 -28 -3 -72 39 -66 30 4 47 33 33 56 -14 21 -55 27
-72 10z"/>
<path d="M2622 1858 c-28 -28 -3 -72 39 -66 30 4 47 33 33 56 -14 21 -55 27
-72 10z"/>
<path d="M6477 1813 c-4 -3 -7 -19 -7 -35 0 -21 -5 -28 -20 -28 -16 0 -20 -7
-20 -30 0 -23 5 -30 19 -30 17 0 19 -10 23 -96 3 -86 5 -98 27 -115 44 -35
111 -23 111 21 0 23 -4 27 -20 23 -37 -10 -50 14 -50 93 l0 74 35 0 c32 0 35
2 35 30 0 28 -3 30 -35 30 -33 0 -35 2 -35 35 0 32 -3 35 -28 35 -16 0 -32 -3
-35 -7z"/>
<path d="M7227 1813 c-4 -3 -7 -19 -7 -35 0 -21 -5 -28 -20 -28 -16 0 -20 -7
-20 -30 0 -23 5 -30 19 -30 17 0 19 -10 23 -96 3 -86 5 -98 27 -115 44 -35
111 -23 111 21 0 23 -4 27 -20 23 -37 -10 -50 14 -50 93 l0 74 35 0 c32 0 35
2 35 30 0 28 -3 30 -35 30 -33 0 -35 2 -35 35 0 32 -3 35 -28 35 -16 0 -32 -3
-35 -7z"/>
<path d="M272 1745 c-59 -26 -90 -134 -58 -208 22 -53 51 -72 111 -72 61 0 85
16 85 56 0 29 0 29 -30 14 -66 -34 -100 -8 -100 77 0 40 5 59 18 71 23 21 52
22 78 2 10 -8 22 -15 27 -15 13 0 7 57 -8 70 -23 19 -87 22 -123 5z"/>
<path d="M556 1737 c-23 -23 -25 -23 -29 -6 -3 13 -14 19 -31 19 l-26 0 0
-141 0 -140 33 3 32 3 5 93 c5 102 20 128 68 119 21 -4 23 -1 20 32 -4 46 -36
54 -72 18z"/>
<path d="M733 1745 c-17 -7 -40 -28 -49 -47 -25 -46 -25 -145 -1 -182 33 -49
115 -70 186 -45 25 9 31 16 31 41 0 25 -3 29 -17 23 -10 -4 -37 -10 -61 -12
-47 -6 -82 15 -82 49 0 16 9 18 84 18 97 0 105 8 86 79 -21 81 -95 112 -177
76z m101 -67 c24 -34 20 -38 -39 -38 -48 0 -55 3 -55 20 0 41 69 54 94 18z"/>
<path d="M1353 1745 c-17 -7 -40 -28 -49 -47 -25 -46 -25 -145 -1 -182 33 -49
115 -70 186 -45 25 9 31 16 31 41 0 25 -3 29 -17 23 -10 -4 -37 -10 -61 -12
-47 -6 -82 15 -82 49 0 16 9 18 84 18 97 0 105 8 86 79 -21 81 -95 112 -177
76z m101 -67 c24 -34 20 -38 -39 -38 -48 0 -55 3 -55 20 0 41 69 54 94 18z"/>
<path d="M1692 1735 c-29 -24 -30 -24 -35 -5 -3 14 -14 20 -31 20 l-26 0 0
-141 0 -140 33 3 32 3 5 100 c5 96 6 100 32 115 21 11 32 12 45 4 15 -9 19
-30 23 -115 l5 -104 33 -3 32 -3 0 118 c-1 123 -5 139 -47 161 -34 19 -69 14
-101 -13z"/>
<path d="M1972 1745 c-59 -26 -90 -134 -58 -208 22 -53 51 -72 111 -72 61 0
85 16 85 56 0 29 0 29 -30 14 -66 -34 -100 -8 -100 77 0 40 5 59 18 71 23 21
52 22 78 2 10 -8 22 -15 27 -15 13 0 7 57 -8 70 -23 19 -87 22 -123 5z"/>
<path d="M2353 1749 c-28 -8 -33 -14 -33 -40 0 -28 3 -31 23 -25 82 25 127 16
127 -25 0 -15 -8 -19 -37 -20 -116 -1 -171 -82 -104 -150 36 -36 86 -39 125
-8 21 17 26 18 26 5 0 -11 9 -16 30 -16 l30 0 0 114 c0 106 -2 117 -23 142
-19 22 -33 28 -78 30 -30 2 -69 -1 -86 -7z m117 -184 c0 -44 -70 -61 -94 -22
-15 24 15 47 61 47 28 0 33 -3 33 -25z"/>
<path d="M2810 1753 c-50 -18 -72 -78 -45 -119 9 -13 37 -35 63 -47 33 -16 47
-28 47 -42 0 -17 -7 -20 -40 -20 -22 0 -50 4 -62 8 -21 8 -23 5 -23 -23 0 -39
33 -54 104 -47 58 5 96 40 96 86 0 37 -17 58 -75 89 -60 32 -66 57 -15 56 19
0 44 -2 55 -5 30 -6 32 35 3 55 -22 16 -78 20 -108 9z"/>
<path d="M3523 1745 c-17 -7 -40 -28 -49 -47 -25 -46 -25 -145 -1 -182 33 -49
115 -70 186 -45 25 9 31 16 31 41 0 25 -3 29 -17 23 -10 -4 -37 -10 -61 -12
-47 -6 -82 15 -82 49 0 16 9 18 84 18 97 0 105 8 86 79 -21 81 -95 112 -177
76z m101 -67 c24 -34 20 -38 -39 -38 -48 0 -55 3 -55 20 0 41 69 54 94 18z"/>
<path d="M3943 1749 c-28 -8 -33 -14 -33 -40 0 -28 3 -31 23 -25 82 25 127 16
127 -25 0 -15 -8 -19 -37 -20 -116 -1 -171 -82 -104 -150 36 -36 86 -39 125
-8 21 17 26 18 26 5 0 -11 9 -16 30 -16 l30 0 0 114 c0 106 -2 117 -23 142
-19 22 -33 28 -78 30 -30 2 -69 -1 -86 -7z m117 -184 c0 -44 -70 -61 -94 -22
-15 24 15 47 61 47 28 0 33 -3 33 -25z"/>
<path d="M4262 1745 c-59 -26 -90 -134 -58 -208 22 -53 51 -72 111 -72 61 0
85 16 85 56 0 29 0 29 -30 14 -66 -34 -100 -8 -100 77 0 40 5 59 18 71 23 21
52 22 78 2 10 -8 22 -15 27 -15 13 0 7 57 -8 70 -23 19 -87 22 -123 5z"/>
<path d="M4513 1745 c-17 -7 -40 -28 -49 -47 -25 -46 -25 -145 -1 -182 33 -49
115 -70 186 -45 25 9 31 16 31 41 0 25 -3 29 -17 23 -10 -4 -37 -10 -61 -12
-47 -6 -82 15 -82 49 0 16 9 18 84 18 97 0 105 8 86 79 -21 81 -95 112 -177
76z m101 -67 c24 -34 20 -38 -39 -38 -48 0 -55 3 -55 20 0 41 69 54 94 18z"/>
<path d="M4800 1753 c-50 -18 -72 -78 -45 -119 9 -13 37 -35 63 -47 33 -16 47
-28 47 -42 0 -17 -7 -20 -40 -20 -22 0 -50 4 -62 8 -21 8 -23 5 -23 -23 0 -39
33 -54 104 -47 58 5 96 40 96 86 0 37 -17 58 -75 89 -60 32 -66 57 -15 56 19
0 44 -2 55 -5 30 -6 32 35 3 55 -22 16 -78 20 -108 9z"/>
<path d="M5040 1753 c-50 -18 -72 -78 -45 -119 9 -13 37 -35 63 -47 33 -16 47
-28 47 -42 0 -17 -7 -20 -40 -20 -22 0 -50 4 -62 8 -21 8 -23 5 -23 -23 0 -39
33 -54 104 -47 58 5 96 40 96 86 0 37 -17 58 -75 89 -60 32 -66 57 -15 56 19
0 44 -2 55 -5 30 -6 32 35 3 55 -22 16 -78 20 -108 9z"/>
<path d="M5291 1743 c-59 -30 -86 -122 -58 -203 36 -103 202 -107 248 -6 66
144 -54 276 -190 209z m111 -60 c23 -21 25 -109 2 -141 -18 -26 -60 -29 -86
-5 -23 21 -25 109 -2 141 18 26 60 29 86 5z"/>
<path d="M6073 1745 c-17 -7 -40 -28 -49 -47 -25 -46 -25 -145 -1 -182 33 -49
115 -70 186 -45 25 9 31 16 31 41 0 25 -3 29 -17 23 -10 -4 -37 -10 -61 -12
-47 -6 -82 15 -82 49 0 16 9 18 84 18 97 0 105 8 86 79 -21 81 -95 112 -177
76z m101 -67 c24 -34 20 -38 -39 -38 -48 0 -55 3 -55 20 0 41 69 54 94 18z"/>
<path d="M6723 1745 c-17 -7 -40 -28 -49 -47 -25 -46 -25 -145 -1 -182 33 -49
115 -70 186 -45 25 9 31 16 31 41 0 25 -3 29 -17 23 -10 -4 -37 -10 -61 -12
-47 -6 -82 15 -82 49 0 16 9 18 84 18 97 0 105 8 86 79 -21 81 -95 112 -177
76z m101 -67 c24 -34 20 -38 -39 -38 -48 0 -55 3 -55 20 0 41 69 54 94 18z"/>
<path d="M7010 1753 c-50 -18 -72 -78 -45 -119 9 -13 37 -35 63 -47 33 -16 47
-28 47 -42 0 -17 -7 -20 -40 -20 -22 0 -50 4 -62 8 -21 8 -23 5 -23 -23 0 -39
33 -54 104 -47 58 5 96 40 96 86 0 37 -17 58 -75 89 -60 32 -66 57 -15 56 19
0 44 -2 55 -5 30 -6 32 35 3 55 -22 16 -78 20 -108 9z"/>
<path d="M7473 1745 c-17 -7 -40 -28 -49 -47 -25 -46 -25 -145 -1 -182 33 -49
115 -70 186 -45 25 9 31 16 31 41 0 25 -3 29 -17 23 -10 -4 -37 -10 -61 -12
-47 -6 -82 15 -82 49 0 16 9 18 84 18 97 0 105 8 86 79 -21 81 -95 112 -177
76z m101 -67 c24 -34 20 -38 -39 -38 -48 0 -55 3 -55 20 0 41 69 54 94 18z"/>
<path d="M7953 1741 c-26 -16 -32 -17 -37 -5 -3 8 -17 14 -31 14 l-25 0 0
-196 0 -195 33 3 c32 3 32 3 35 66 l3 62 29 -15 c46 -24 78 -19 115 18 25 25
34 45 40 83 7 57 -6 121 -33 154 -25 31 -88 37 -129 11z m71 -63 c33 -47 11
-158 -31 -158 -34 0 -63 41 -63 89 0 75 60 119 94 69z"/>
<path d="M8213 1749 c-28 -8 -33 -14 -33 -40 0 -28 3 -31 23 -25 82 25 127 16
127 -25 0 -15 -8 -19 -37 -20 -116 -1 -171 -82 -104 -150 36 -36 86 -39 125
-8 21 17 26 18 26 5 0 -11 9 -16 30 -16 l30 0 0 114 c0 106 -2 117 -23 142
-19 22 -33 28 -78 30 -30 2 -69 -1 -86 -7z m117 -184 c0 -44 -70 -61 -94 -22
-15 24 15 47 61 47 28 0 33 -3 33 -25z"/>
<path d="M8566 1737 c-23 -23 -25 -23 -29 -6 -3 13 -14 19 -31 19 l-26 0 0
-141 0 -140 33 3 32 3 5 93 c5 102 20 128 68 119 21 -4 23 -1 20 32 -4 46 -36
54 -72 18z"/>
<path d="M8723 1749 c-28 -8 -33 -14 -33 -40 0 -28 3 -31 23 -25 82 25 127 16
127 -25 0 -15 -8 -19 -37 -20 -116 -1 -171 -82 -104 -150 36 -36 86 -39 125
-8 21 17 26 18 26 5 0 -11 9 -16 30 -16 l30 0 0 114 c0 106 -2 117 -23 142
-19 22 -33 28 -78 30 -30 2 -69 -1 -86 -7z m117 -184 c0 -44 -70 -61 -94 -22
-15 24 15 47 61 47 28 0 33 -3 33 -25z"/>
<path d="M9181 1743 c-59 -30 -86 -122 -58 -203 36 -103 202 -107 248 -6 66
144 -54 276 -190 209z m111 -60 c23 -21 25 -109 2 -141 -18 -26 -60 -29 -86
-5 -23 21 -25 109 -2 141 18 26 60 29 86 5z"/>
<path d="M2170 1610 l0 -140 35 0 35 0 0 140 0 140 -35 0 -35 0 0 -140z"/>
<path d="M2620 1610 l0 -140 35 0 35 0 0 140 0 140 -35 0 -35 0 0 -140z"/>
<path d="M462 1128 c-28 -28 -3 -72 39 -66 30 4 47 33 33 56 -14 21 -55 27
-72 10z"/>
<path d="M867 1083 c-4 -3 -7 -19 -7 -35 0 -21 -5 -28 -20 -28 -16 0 -20 -7
-20 -30 0 -23 5 -30 19 -30 17 0 19 -10 23 -96 3 -86 5 -98 27 -115 44 -35
111 -23 111 21 0 23 -4 27 -20 23 -37 -10 -50 14 -50 93 l0 74 35 0 c32 0 35
2 35 30 0 28 -3 30 -35 30 -33 0 -35 2 -35 35 0 32 -3 35 -28 35 -16 0 -32 -3
-35 -7z"/>
<path d="M260 1023 c-50 -18 -72 -78 -45 -119 9 -13 37 -35 63 -47 33 -16 47
-28 47 -42 0 -17 -7 -20 -40 -20 -22 0 -50 4 -62 8 -21 8 -23 5 -23 -23 0 -39
33 -54 104 -47 58 5 96 40 96 86 0 37 -17 58 -75 89 -60 32 -66 57 -15 56 19
0 44 -2 55 -5 30 -6 32 35 3 55 -22 16 -78 20 -108 9z"/>
<path d="M650 1023 c-50 -18 -72 -78 -45 -119 9 -13 37 -35 63 -47 33 -16 47
-28 47 -42 0 -17 -7 -20 -40 -20 -22 0 -50 4 -62 8 -21 8 -23 5 -23 -23 0 -39
33 -54 104 -47 58 5 96 40 96 86 0 37 -17 58 -75 89 -60 32 -66 57 -15 56 19
0 44 -2 55 -5 30 -6 32 35 3 55 -22 16 -78 20 -108 9z"/>
<path d="M1113 1015 c-17 -7 -40 -28 -49 -47 -25 -46 -25 -145 -1 -182 33 -49
115 -70 186 -45 25 9 31 16 31 41 0 25 -3 29 -17 23 -10 -4 -37 -10 -61 -12
-47 -6 -82 15 -82 49 0 16 9 18 84 18 97 0 105 8 86 79 -21 81 -95 112 -177
76z m101 -67 c24 -34 20 -38 -39 -38 -48 0 -55 3 -55 20 0 41 69 54 94 18z"/>
<path d="M1451 1004 c-30 -25 -31 -25 -31 -5 0 17 -6 21 -30 21 l-30 0 0 -140
0 -140 35 0 35 0 0 99 c0 92 2 101 22 115 58 41 78 11 78 -118 l0 -96 35 0 35
0 0 93 c0 85 2 96 23 115 26 25 50 28 65 9 6 -7 13 -58 14 -113 l3 -99 33 -3
32 -3 0 110 c0 60 -5 121 -11 134 -23 50 -91 61 -136 23 l-28 -24 -28 24 c-37
31 -78 31 -116 -2z"/>
<path d="M1883 1019 c-28 -8 -33 -14 -33 -40 0 -28 3 -31 23 -25 82 25 127 16
127 -25 0 -15 -8 -19 -37 -20 -116 -1 -171 -82 -104 -150 36 -36 86 -39 125
-8 21 17 26 18 26 5 0 -11 9 -16 30 -16 l30 0 0 114 c0 106 -2 117 -23 142
-19 22 -33 28 -78 30 -30 2 -69 -1 -86 -7z m117 -184 c0 -44 -70 -61 -94 -22
-15 24 15 47 61 47 28 0 33 -3 33 -25z"/>
<path d="M460 880 l0 -140 35 0 35 0 0 140 0 140 -35 0 -35 0 0 -140z"/>
<path d="M2154 816 c-3 -8 -4 -27 -2 -43 3 -25 7 -28 38 -28 34 0 35 1 35 40
0 38 -2 40 -33 43 -21 2 -34 -2 -38 -12z"/>
</g>
</svg>
