<?xml version="1.0" standalone="no"?>
<!DOCTYPE svg PUBLIC "-//W3C//DTD SVG 20010904//EN"
 "http://www.w3.org/TR/2001/REC-SVG-20010904/DTD/svg10.dtd">
<svg version="1.0" xmlns="http://www.w3.org/2000/svg"
 width="763.000000pt" height="186.000000pt" viewBox="0 0 763.000000 186.000000"
 preserveAspectRatio="xMidYMid meet">
<a xlink:href="https://stackoverflow.com/">
<g transform="translate(0.000000,186.000000) scale(0.100000,-0.100000)"
fill="#000000" stroke="none">
<path d="M5070 1708 c-25 -41 -25 -48 -1 -48 16 0 71 58 71 74 0 3 -11 6 -25
6 -18 0 -31 -10 -45 -32z"/>
<path d="M280 1566 l0 -166 30 0 30 0 -2 163 -3 162 -27 3 -28 3 0 -165z"/>
<path d="M3660 1566 l0 -166 25 0 c14 0 25 5 25 11 0 5 10 3 22 -5 77 -54 151
27 135 147 -10 71 -73 108 -124 72 -22 -15 -22 -15 -25 42 -3 55 -4 58 -30 61
l-28 3 0 -165z m140 5 c24 -45 6 -131 -27 -131 -31 0 -53 31 -53 73 0 65 55
104 80 58z"/>
<path d="M5367 1723 c-4 -3 -7 -28 -7 -55 0 -45 -11 -61 -25 -38 -3 6 -17 10
-31 10 -65 0 -98 -53 -92 -143 4 -50 9 -64 32 -84 32 -27 56 -29 96 -8 17 9
30 11 30 5 0 -5 11 -10 25 -10 l25 0 0 165 0 165 -23 0 c-13 0 -27 -3 -30 -7z
m-25 -150 c23 -21 24 -89 1 -115 -36 -40 -73 -12 -73 57 0 68 32 94 72 58z"/>
<path d="M404 1706 c-10 -26 4 -48 28 -44 17 2 23 10 23 28 0 18 -6 26 -23 28
-13 2 -25 -3 -28 -12z"/>
<path d="M2154 1706 c-10 -26 4 -48 28 -44 17 2 23 10 23 28 0 18 -6 26 -23
28 -13 2 -25 -3 -28 -12z"/>
<path d="M5484 1706 c-10 -26 4 -48 28 -44 17 2 23 10 23 28 0 18 -6 26 -23
28 -13 2 -25 -3 -28 -12z"/>
<path d="M105 1701 c-51 -23 -85 -85 -85 -157 0 -92 53 -154 132 -154 58 0 88
15 88 46 0 21 -3 25 -18 18 -9 -4 -33 -9 -52 -11 -53 -7 -83 29 -84 101 -1 92
58 142 119 102 13 -9 27 -16 30 -16 12 0 4 48 -10 60 -19 16 -94 23 -120 11z"/>
<path d="M3937 1683 c-4 -3 -7 -17 -7 -30 0 -14 -6 -23 -15 -23 -9 0 -15 -9
-15 -25 0 -15 6 -25 14 -25 10 0 15 -20 18 -81 4 -91 18 -112 73 -107 39 4 50
45 13 50 -21 3 -23 9 -26 71 -3 66 -3 67 23 67 20 0 25 5 25 25 0 20 -5 25
-25 25 -21 0 -25 5 -25 30 0 25 -4 30 -23 30 -13 0 -27 -3 -30 -7z"/>
<path d="M5617 1683 c-4 -3 -7 -17 -7 -30 0 -14 -6 -23 -15 -23 -9 0 -15 -9
-15 -25 0 -15 6 -25 14 -25 10 0 15 -20 18 -81 4 -91 18 -112 73 -107 39 4 50
45 13 50 -21 3 -23 9 -26 71 -3 66 -3 67 23 67 20 0 25 5 25 25 0 20 -5 25
-25 25 -21 0 -25 5 -25 30 0 25 -4 30 -23 30 -13 0 -27 -3 -30 -7z"/>
<path d="M554 1625 c-33 -22 -47 -68 -42 -132 4 -46 10 -61 32 -80 31 -27 62
-29 93 -8 22 15 22 15 25 -37 3 -49 5 -53 31 -56 l27 -3 0 160 0 161 -25 0
c-14 0 -25 -5 -25 -11 0 -7 -10 -5 -25 5 -30 20 -64 20 -91 1z m88 -52 c23
-21 24 -89 1 -115 -36 -40 -73 -12 -73 57 0 68 32 94 72 58z"/>
<path d="M1083 1628 c-54 -26 -72 -164 -27 -209 24 -23 79 -34 128 -25 29 6
36 11 36 31 0 23 -2 24 -50 18 -54 -6 -80 6 -80 38 0 17 8 19 70 19 l70 0 0
41 c0 76 -76 121 -147 87z m88 -65 c8 -22 6 -23 -36 -23 -30 0 -45 4 -45 13 0
41 67 48 81 10z"/>
<path d="M1418 1628 c-20 -7 -28 -17 -28 -35 0 -21 3 -23 23 -17 12 5 38 8 57
9 28 0 36 -4 38 -21 3 -18 -3 -22 -43 -26 -25 -3 -55 -14 -65 -23 -22 -20 -26
-65 -10 -95 15 -27 74 -36 105 -16 14 9 25 12 25 6 0 -5 11 -10 25 -10 25 0
25 0 25 95 0 88 -2 98 -25 120 -26 27 -76 32 -127 13z m92 -146 c0 -38 -46
-56 -70 -27 -18 21 4 45 41 45 21 0 29 -5 29 -18z"/>
<path d="M1664 1625 c-33 -22 -47 -68 -42 -132 4 -46 10 -61 32 -80 31 -27 62
-29 93 -8 22 15 22 15 25 -37 3 -49 5 -53 31 -56 l27 -3 0 160 0 161 -25 0
c-14 0 -25 -5 -25 -11 0 -7 -10 -5 -25 5 -30 20 -64 20 -91 1z m88 -52 c23
-21 24 -89 1 -115 -36 -40 -73 -12 -73 57 0 68 32 94 72 58z"/>
<path d="M2456 1619 c-21 -17 -26 -18 -26 -5 0 10 -9 16 -25 16 l-25 0 0 -161
0 -160 28 3 c25 3 27 7 32 57 4 48 7 52 19 38 7 -10 24 -17 38 -17 64 0 97 53
91 143 -4 50 -9 64 -32 84 -34 28 -65 29 -100 2z m64 -48 c25 -47 4 -131 -32
-131 -26 0 -48 34 -48 73 0 65 55 104 80 58z"/>
<path d="M2668 1628 c-20 -7 -28 -17 -28 -35 0 -21 3 -23 23 -17 12 5 38 8 57
9 28 0 36 -4 38 -21 3 -18 -3 -22 -43 -26 -25 -3 -55 -14 -65 -23 -22 -20 -26
-65 -10 -95 15 -27 74 -36 105 -16 14 9 25 12 25 6 0 -5 11 -10 25 -10 25 0
25 0 25 95 0 88 -2 98 -25 120 -26 27 -76 32 -127 13z m92 -146 c0 -38 -46
-56 -70 -27 -18 21 4 45 41 45 21 0 29 -5 29 -18z"/>
<path d="M2950 1620 c-16 -16 -20 -17 -20 -5 0 9 -9 15 -25 15 l-25 0 0 -116
0 -115 28 3 c26 3 27 5 32 81 5 80 14 97 53 97 12 0 17 8 17 30 0 23 -4 30
-20 30 -11 0 -29 -9 -40 -20z"/>
<path d="M3078 1628 c-20 -7 -28 -17 -28 -35 0 -21 3 -23 23 -17 12 5 38 8 57
9 28 0 36 -4 38 -21 3 -18 -3 -22 -43 -26 -25 -3 -55 -14 -65 -23 -22 -20 -26
-65 -10 -95 15 -27 74 -36 105 -16 14 9 25 12 25 6 0 -5 11 -10 25 -10 25 0
25 0 25 95 0 88 -2 98 -25 120 -26 27 -76 32 -127 13z m92 -146 c0 -38 -46
-56 -70 -27 -18 21 4 45 41 45 21 0 29 -5 29 -18z"/>
<path d="M3455 1631 c-54 -23 -82 -115 -55 -181 27 -64 126 -79 178 -26 33 33
42 117 18 165 -24 46 -86 64 -141 42z m85 -60 c15 -30 12 -97 -6 -115 -21 -22
-61 -20 -74 3 -15 30 -12 97 6 115 21 22 61 20 74 -3z"/>
<path d="M4133 1628 c-54 -26 -72 -164 -27 -209 24 -23 79 -34 128 -25 29 6
36 11 36 31 0 23 -2 24 -50 18 -54 -6 -80 6 -80 38 0 17 8 19 70 19 l70 0 0
41 c0 76 -76 121 -147 87z m88 -65 c8 -22 6 -23 -36 -23 -30 0 -45 4 -45 13 0
41 67 48 81 10z"/>
<path d="M4400 1620 c-16 -16 -20 -17 -20 -5 0 9 -9 15 -25 15 l-25 0 0 -116
0 -115 28 3 c26 3 27 5 32 81 5 80 14 97 53 97 12 0 17 8 17 30 0 23 -4 30
-20 30 -11 0 -29 -9 -40 -20z"/>
<path d="M4649 1626 c-37 -21 -52 -65 -47 -133 4 -46 10 -61 32 -80 47 -40
136 -25 136 23 0 21 -3 25 -17 19 -69 -29 -93 -13 -93 60 0 73 15 84 89 64 17
-5 25 20 12 39 -12 20 -82 25 -112 8z"/>
<path d="M4880 1620 c-16 -16 -20 -17 -20 -5 0 9 -9 15 -25 15 l-25 0 0 -116
0 -115 28 3 c26 3 27 5 32 81 5 80 14 97 53 97 12 0 17 8 17 30 0 23 -4 30
-20 30 -11 0 -29 -9 -40 -20z"/>
<path d="M5023 1628 c-54 -26 -72 -164 -27 -209 24 -23 79 -34 128 -25 29 6
36 11 36 31 0 23 -2 24 -50 18 -54 -6 -80 6 -80 38 0 17 8 19 70 19 l70 0 0
41 c0 76 -76 121 -147 87z m88 -65 c8 -22 6 -23 -36 -23 -30 0 -45 4 -45 13 0
41 67 48 81 10z"/>
<path d="M5825 1631 c-54 -23 -82 -115 -55 -181 27 -64 126 -79 178 -26 33 33
42 117 18 165 -24 46 -86 64 -141 42z m85 -60 c15 -30 12 -97 -6 -115 -21 -22
-61 -20 -74 3 -15 30 -12 97 6 115 21 22 61 20 74 -3z"/>
<path d="M6046 1619 c-47 -37 -32 -94 34 -124 49 -22 52 -50 5 -49 -17 0 -38
4 -47 8 -15 7 -18 3 -18 -18 0 -65 126 -60 149 6 15 41 -2 71 -55 96 -24 12
-44 26 -44 32 0 18 31 24 61 13 27 -10 29 -9 29 13 0 45 -68 59 -114 23z"/>
<path d="M6406 1619 c-21 -17 -26 -18 -26 -5 0 10 -9 16 -25 16 l-25 0 0 -161
0 -160 28 3 c25 3 27 7 32 57 4 48 7 52 19 38 7 -10 24 -17 38 -17 64 0 97 53
91 143 -4 50 -9 64 -32 84 -34 28 -65 29 -100 2z m64 -48 c25 -47 4 -131 -32
-131 -26 0 -48 34 -48 73 0 65 55 104 80 58z"/>
<path d="M6618 1628 c-20 -7 -28 -17 -28 -35 0 -21 3 -23 23 -17 12 5 38 8 57
9 28 0 36 -4 38 -21 3 -18 -3 -22 -43 -26 -25 -3 -55 -14 -65 -23 -22 -20 -26
-65 -10 -95 15 -27 74 -36 105 -16 14 9 25 12 25 6 0 -5 11 -10 25 -10 25 0
25 0 25 95 0 88 -2 98 -25 120 -26 27 -76 32 -127 13z m92 -146 c0 -38 -46
-56 -70 -27 -18 21 4 45 41 45 21 0 29 -5 29 -18z"/>
<path d="M6900 1620 c-16 -16 -20 -17 -20 -5 0 9 -9 15 -25 15 l-25 0 0 -116
0 -115 28 3 c26 3 27 5 32 81 5 80 14 97 53 97 12 0 17 8 17 30 0 23 -4 30
-20 30 -11 0 -29 -9 -40 -20z"/>
<path d="M7028 1628 c-20 -7 -28 -17 -28 -35 0 -21 3 -23 23 -17 12 5 38 8 57
9 28 0 36 -4 38 -21 3 -18 -3 -22 -43 -26 -25 -3 -55 -14 -65 -23 -22 -20 -26
-65 -10 -95 15 -27 74 -36 105 -16 14 9 25 12 25 6 0 -5 11 -10 25 -10 25 0
25 0 25 95 0 88 -2 98 -25 120 -26 27 -76 32 -127 13z m92 -146 c0 -38 -46
-56 -70 -27 -18 21 4 45 41 45 21 0 29 -5 29 -18z"/>
<path d="M400 1516 l0 -116 30 0 31 0 -3 113 -3 112 -27 3 -28 3 0 -115z"/>
<path d="M780 1535 c0 -89 2 -98 25 -120 30 -30 64 -32 99 -4 21 17 26 18 26
5 0 -10 9 -16 25 -16 l25 0 0 115 0 115 -30 0 -30 0 0 -78 c0 -65 -3 -82 -19
-96 -11 -10 -28 -16 -38 -14 -15 3 -19 16 -23 93 -5 89 -5 90 -32 93 l-28 3 0
-96z"/>
<path d="M1890 1535 c0 -89 2 -98 25 -120 30 -30 64 -32 99 -4 21 17 26 18 26
5 0 -10 9 -16 25 -16 l25 0 0 115 0 115 -30 0 -30 0 0 -78 c0 -65 -3 -82 -19
-96 -11 -10 -28 -16 -38 -14 -15 3 -19 16 -23 93 -5 89 -5 90 -32 93 l-28 3 0
-96z"/>
<path d="M2150 1516 l0 -116 30 0 31 0 -3 113 -3 112 -27 3 -28 3 0 -115z"/>
<path d="M5480 1516 l0 -116 30 0 31 0 -3 113 -3 112 -27 3 -28 3 0 -115z"/>
<path d="M2547 1093 c-4 -3 -7 -17 -7 -30 0 -14 -6 -23 -15 -23 -9 0 -15 -9
-15 -25 0 -15 6 -25 14 -25 10 0 15 -20 18 -81 4 -91 18 -112 73 -107 39 4 50
45 13 50 -21 3 -23 9 -26 71 -3 66 -3 67 23 67 20 0 25 5 25 25 0 20 -5 25
-25 25 -21 0 -25 5 -25 30 0 25 -4 30 -23 30 -13 0 -27 -3 -30 -7z"/>
<path d="M58 1038 c-20 -7 -28 -17 -28 -35 0 -21 3 -23 23 -17 12 5 38 8 57 9
28 0 36 -4 38 -21 3 -18 -3 -22 -43 -26 -25 -3 -55 -14 -65 -23 -22 -20 -26
-65 -10 -95 15 -27 74 -36 105 -16 14 9 25 12 25 6 0 -5 11 -10 25 -10 25 0
25 0 25 95 0 88 -2 98 -25 120 -26 27 -76 32 -127 13z m92 -146 c0 -38 -46
-56 -70 -27 -18 21 4 45 41 45 21 0 29 -5 29 -18z"/>
<path d="M309 1036 c-37 -21 -52 -65 -47 -133 4 -46 10 -61 32 -80 47 -40 136
-25 136 23 0 21 -3 25 -17 19 -69 -29 -93 -13 -93 60 0 73 15 84 89 64 17 -5
25 20 12 39 -12 20 -82 25 -112 8z"/>
<path d="M513 1038 c-54 -26 -72 -164 -27 -209 24 -23 79 -34 128 -25 29 6 36
11 36 31 0 23 -2 24 -50 18 -54 -6 -80 6 -80 38 0 17 8 19 70 19 l70 0 0 41
c0 76 -76 121 -147 87z m88 -65 c8 -22 6 -23 -36 -23 -30 0 -45 4 -45 13 0 41
67 48 81 10z"/>
<path d="M726 1029 c-47 -37 -32 -94 34 -124 49 -22 52 -50 5 -49 -17 0 -38 4
-47 8 -15 7 -18 3 -18 -18 0 -65 126 -60 149 6 15 41 -2 71 -55 96 -24 12 -44
26 -44 32 0 18 31 24 61 13 27 -10 29 -9 29 13 0 45 -68 59 -114 23z"/>
<path d="M916 1029 c-47 -37 -32 -94 34 -124 49 -22 52 -50 5 -49 -17 0 -38 4
-47 8 -15 7 -18 3 -18 -18 0 -65 126 -60 149 6 15 41 -2 71 -55 96 -24 12 -44
26 -44 32 0 18 31 24 61 13 27 -10 29 -9 29 13 0 45 -68 59 -114 23z"/>
<path d="M1145 1041 c-54 -23 -82 -115 -55 -181 27 -64 126 -79 178 -26 33 33
42 117 18 165 -24 46 -86 64 -141 42z m85 -60 c15 -30 12 -97 -6 -115 -21 -22
-61 -20 -74 3 -15 30 -12 97 6 115 21 22 61 20 74 -3z"/>
<path d="M1488 1038 c-20 -7 -28 -17 -28 -35 0 -21 3 -23 23 -17 12 5 38 8 57
9 28 0 36 -4 38 -21 3 -18 -3 -22 -43 -26 -25 -3 -55 -14 -65 -23 -22 -20 -26
-65 -10 -95 15 -27 74 -36 105 -16 14 9 25 12 25 6 0 -5 11 -10 25 -10 25 0
25 0 25 95 0 88 -2 98 -25 120 -26 27 -76 32 -127 13z m92 -146 c0 -38 -46
-56 -70 -27 -18 21 4 45 41 45 21 0 29 -5 29 -18z"/>
<path d="M1849 1036 c-37 -21 -52 -65 -47 -133 4 -46 10 -61 32 -80 47 -40
136 -25 136 23 0 21 -3 25 -17 19 -69 -29 -93 -13 -93 60 0 73 15 84 89 64 17
-5 25 20 12 39 -12 20 -82 25 -112 8z"/>
<path d="M2065 1041 c-54 -23 -82 -115 -55 -181 27 -64 126 -79 178 -26 33 33
42 117 18 165 -24 46 -86 64 -141 42z m85 -60 c15 -30 12 -97 -6 -115 -21 -22
-61 -20 -74 3 -15 30 -12 97 6 115 21 22 61 20 74 -3z"/>
<path d="M2346 1029 c-21 -17 -26 -18 -26 -5 0 10 -9 16 -25 16 l-25 0 0 -116
0 -115 28 3 c27 3 27 4 30 86 3 76 5 84 27 94 45 20 54 7 57 -89 3 -88 3 -88
31 -91 l27 -3 0 96 c0 89 -2 98 -25 120 -30 30 -64 32 -99 4z"/>
<path d="M2728 1038 c-20 -7 -28 -17 -28 -35 0 -21 3 -23 23 -17 12 5 38 8 57
9 28 0 36 -4 38 -21 3 -18 -3 -22 -43 -26 -25 -3 -55 -14 -65 -23 -22 -20 -26
-65 -10 -95 15 -27 74 -36 105 -16 14 9 25 12 25 6 0 -5 11 -10 25 -10 25 0
25 0 25 95 0 88 -2 98 -25 120 -26 27 -76 32 -127 13z m92 -146 c0 -38 -46
-56 -70 -27 -18 21 4 45 41 45 21 0 29 -5 29 -18z"/>
<path d="M2944 866 c-12 -31 0 -51 31 -51 27 0 30 3 30 30 0 25 -4 30 -28 33
-17 2 -29 -2 -33 -12z"/>
</g>
</a>
</svg>
